<svg fill="none" height="30" viewBox="0 0 122 30" width="122" xmlns="http://www.w3.org/2000/svg" class="text-label-primary h-6 w-24 lg:h-10  ltr:block rtl:hidden"><path d="M14.8134 2.56066L8.66964 0.0027613L6.14326 6.22311L12.287 8.78101L14.8134 2.56066Z" fill="currentColor" fill-opacity="0.9"></path><path d="M23.5042 6.22354L20.9553 12.4539L27.0438 15.0012L29.6578 8.8043L23.5042 6.22354Z" fill="currentColor" fill-opacity="0.9"></path><path d="M6.14326 6.22311L0 8.78113L2.52638 15.0015L8.67009 12.4436L6.14326 6.22311Z" fill="currentColor" fill-opacity="0.9"></path><path d="M20.988 0L14.8344 2.58076L17.3834 8.81113L23.537 6.23037L20.988 0Z" fill="currentColor" fill-opacity="0.9"></path><path d="M27.0438 15.0012L20.9575 17.5591L23.4839 23.7795L29.6276 21.2216L27.0438 15.0012Z" fill="currentColor" fill-opacity="0.9"></path><path d="M14.8142 27.3839L20.958 30L23.4843 23.7796L17.3406 21.2217L14.8142 27.3839Z" fill="currentColor" fill-opacity="0.9"></path><path d="M6.14371 23.7795L8.67009 17.5591L2.52638 15.0015L0 21.2216L6.14371 23.7795Z" fill="currentColor" fill-opacity="0.9"></path><path d="M12.3025 21.1633L6.14887 23.7441L8.69783 29.9744L14.8514 27.3937L12.3025 21.1633Z" fill="currentColor" fill-opacity="0.9"></path><path d="M67.5986 6.09375H64.1231V23.7656H67.5986V6.09375Z" fill="currentColor" fill-opacity="0.9"></path><path d="M76.3463 6.09375H72.8708V23.7656H76.3463V6.09375Z" fill="currentColor" fill-opacity="0.9"></path><path d="M46.63 20.6058L58.8523 9.25362V6.09375H43.0386L41.7063 9.25362H53.9286L41.7063 20.6058V23.7656H59.1999L60.5322 20.6058H46.63Z" fill="currentColor" fill-opacity="0.9"></path><path d="M95.9829 6.09375V18.6747L85.0929 6.09375H81.6173V23.7656H85.0929V11.1261L95.9829 23.7656H99.4584V6.09375H95.9829Z" fill="currentColor" fill-opacity="0.9"></path><path d="M109.711 6.09375L102.471 23.7656H106.062L107.916 19.1428H116.199L118.111 23.7656H121.702L114.461 6.09375H109.711ZM109.248 15.983L112.086 9.07807L114.925 15.983H109.248Z" fill="currentColor" fill-opacity="0.9"></path></svg>